<svg width="730" height="600" viewBox="0 0 730 600" fill="none" xmlns="http://www.w3.org/2000/svg">
<g clip-path="url(#clip0_40_704)">
<path d="M582.738 62.4323C581.158 68.2827 582.974 77.4948 583.658 82.9561C584.39 88.7947 574.269 94.02 568.478 94.3503C568.62 92.4177 568.077 90.4966 566.944 88.9244C566.931 90.7941 566.546 92.6424 565.812 94.3621H517.487C511.4 82.9089 506.222 67.2565 511.813 51.0735C512.097 47.8233 513.334 44.7292 515.369 42.1796C517.405 39.6299 520.148 37.7383 523.255 36.7422L549.605 28.3086C559.997 28.3086 572.748 29.783 578.492 37.5207C581.034 41.0831 582.737 45.175 583.473 49.4894C584.208 53.8038 583.957 58.2288 582.738 62.4323Z" fill="#2F2E41"/>
<path d="M629.008 568.544C629.869 568.575 630.719 568.341 631.443 567.873C632.167 567.405 632.729 566.726 633.054 565.928C633.379 565.129 633.451 564.25 633.259 563.41C633.068 562.569 632.623 561.808 631.985 561.229C631.875 560.809 631.796 560.507 631.686 560.087C632.49 557.986 633.903 556.173 635.744 554.88C637.585 553.587 639.77 552.874 642.019 552.831C644.269 552.789 646.479 553.419 648.368 554.641C650.257 555.863 651.738 557.621 652.621 559.69C657.714 571.303 664.276 583.313 661.192 596.188C681.944 551.097 674.21 495.329 642.543 457.239C633.846 452.555 626.752 444.154 624.833 434.34C629.129 435.75 634.435 432.216 631.172 427.736C629.76 426.025 628.335 424.329 626.923 422.618C643.024 405.14 662.663 432.181 644.982 455.732C650.909 463.019 656.058 470.906 660.344 479.264C659.288 470.356 660.361 461.324 663.477 452.912C666.64 445.069 672.647 438.432 677.928 431.628C684.348 423.338 697.759 427.007 698.733 437.441C692.754 439.469 692.058 448.14 698.929 449.26C697.318 468.703 684.797 486.675 667.399 495.361C674.026 513.411 676.73 532.666 675.331 551.843C678.203 529.419 702.19 523.756 718.908 514.695C719.97 513.999 721.213 513.627 722.483 513.625C723.754 513.623 724.997 513.991 726.062 514.684C727.127 515.377 727.968 516.365 728.481 517.527C728.994 518.689 729.158 519.975 728.952 521.229C726.642 522.194 724.434 523.386 722.359 524.788C721.388 525.455 720.646 526.406 720.236 527.511C719.825 528.617 719.767 529.821 720.069 530.961C720.37 532.101 721.017 533.119 721.92 533.876C722.823 534.634 723.938 535.094 725.113 535.193C716.843 556.235 695.081 570.519 672.591 570.654C670.519 580.066 667.474 589.237 663.507 598.02L630.128 598.338C630.005 597.968 629.893 597.586 629.782 597.216C632.873 597.381 635.973 597.167 639.013 596.578C630.747 586.978 624.378 582.101 629.007 568.544L629.008 568.544Z" fill="#F2F2F2"/>
<path d="M560.118 575.256H547.098L540.902 525.039H560.118V575.256Z" fill="#FFB6B6"/>
<path d="M566.989 597.814H557.653L555.986 588.999L551.718 597.814H526.955C525.768 597.814 524.612 597.435 523.656 596.731C522.7 596.028 521.994 595.037 521.64 593.904C521.287 592.771 521.305 591.554 521.692 590.432C522.08 589.31 522.815 588.341 523.792 587.667L543.567 574.01V565.098L564.367 566.34L566.989 597.814Z" fill="#2F2E41"/>
<path d="M580.555 484.303L571.413 493.574L531.303 462.731L544.794 449.048L580.555 484.303Z" fill="#FFB6B6"/>
<path d="M601.441 495.247L594.887 501.896L587.439 496.894L590.72 506.122L573.335 523.756C572.501 524.601 571.42 525.158 570.248 525.345C569.075 525.532 567.874 525.339 566.819 524.795C565.764 524.251 564.911 523.384 564.384 522.321C563.856 521.257 563.683 520.053 563.888 518.884L568.046 495.214L561.7 488.957L577.187 475.017L601.441 495.247Z" fill="#2F2E41"/>
<path d="M476.408 212.63L515.789 149.975C517.45 147.315 517.998 144.11 517.316 141.05C516.634 137.989 514.776 135.32 512.143 133.618C510.781 132.737 509.254 132.143 507.654 131.872C506.055 131.601 504.418 131.658 502.841 132.04C501.265 132.423 499.783 133.122 498.486 134.096C497.189 135.069 496.104 136.297 495.297 137.704L456.385 204.041L431.042 243.353C428.933 242.985 426.763 243.275 424.825 244.183C422.887 245.092 421.275 246.575 420.209 248.431C419.144 250.287 418.675 252.426 418.867 254.558C419.06 256.69 419.904 258.711 421.284 260.346C422.665 261.982 424.516 263.152 426.585 263.699C428.655 264.246 430.842 264.143 432.851 263.403C434.859 262.663 436.591 261.323 437.812 259.565C439.032 257.807 439.682 255.715 439.672 253.575L476.408 212.63Z" fill="#FFB6B6"/>
<path d="M513.522 166.361L516.842 165.734C516.395 164.92 516.208 163.987 516.307 163.063C516.405 162.139 516.785 161.268 517.394 160.566C518.003 159.864 518.813 159.365 519.714 159.137C520.615 158.909 521.564 158.963 522.433 159.291C518.433 155.118 520.376 148.249 522.949 143.073C524.809 139.332 526.9 135.635 527.81 131.558C529.192 125.367 527.41 117.875 519.155 116.393C515.78 115.865 512.327 116.564 509.423 118.363C504.234 121.429 503.067 120.095 499.794 125.03L497.928 128.497C495.532 132.251 492.672 135.688 489.417 138.726C487.089 141.045 485.212 143.776 483.884 146.781C483.709 147.153 483.451 147.48 483.129 147.736C481.853 148.723 480.117 148.772 478.517 148.982C476.5 149.248 474.193 150.102 474.245 152.603C474.274 153.202 474.427 153.787 474.693 154.323C474.959 154.86 475.334 155.335 475.793 155.72C484.309 163.173 494.275 168.784 505.064 172.2C507.461 172.958 510.154 173.585 512.408 172.473C514.663 171.362 515.63 167.729 513.522 166.361Z" fill="#6C63FF"/>
<path d="M563.488 285.445L486.819 284.266L484.46 266.573L491.537 226.469H551.693L563.488 285.445Z" fill="#FFB6B6"/>
<path d="M399.534 332.626H101.114C93.9215 332.618 87.0258 329.758 81.9398 324.672C76.8539 319.586 73.9931 312.69 73.985 305.497V134.466C73.9932 127.273 76.854 120.378 81.9399 115.292C87.0259 110.206 93.9215 107.345 101.114 107.337H399.534C406.727 107.345 413.622 110.206 418.708 115.292C423.794 120.378 426.655 127.273 426.663 134.466V305.497C426.655 312.69 423.794 319.586 418.708 324.672C413.623 329.758 406.727 332.618 399.534 332.626Z" fill="white"/>
<path d="M399.534 332.626H101.114C93.9215 332.618 87.0258 329.758 81.9398 324.672C76.8539 319.586 73.9931 312.69 73.985 305.497V134.466C73.9932 127.273 76.854 120.378 81.9399 115.292C87.0259 110.206 93.9215 107.345 101.114 107.337H399.534C406.727 107.345 413.622 110.206 418.708 115.292C423.794 120.378 426.655 127.273 426.663 134.466V305.497C426.655 312.69 423.794 319.586 418.708 324.672C413.623 329.758 406.727 332.618 399.534 332.626ZM101.114 109.696C94.5469 109.703 88.2508 112.315 83.6072 116.959C78.9635 121.603 76.3514 127.899 76.344 134.466V305.497C76.3515 312.064 78.9636 318.361 83.6073 323.004C88.2509 327.648 94.547 330.26 101.114 330.267H399.534C406.101 330.26 412.397 327.648 417.041 323.004C421.685 318.361 424.297 312.064 424.304 305.497V134.466C424.297 127.899 421.685 121.603 417.041 116.959C412.397 112.315 406.101 109.703 399.534 109.696H101.114Z" fill="#E6E6E6"/>
<path d="M424.305 231.588H75.1635C74.8507 231.588 74.5507 231.463 74.3295 231.242C74.1083 231.021 73.984 230.721 73.984 230.408C73.984 230.095 74.1083 229.795 74.3295 229.574C74.5507 229.353 74.8507 229.229 75.1635 229.229H424.305C424.618 229.229 424.918 229.353 425.139 229.574C425.361 229.795 425.485 230.095 425.485 230.408C425.485 230.721 425.361 231.021 425.139 231.242C424.918 231.463 424.618 231.588 424.305 231.588Z" fill="#E6E6E6"/>
<path d="M164.716 283.44H127.862C127.55 283.44 127.25 283.316 127.028 283.095C126.807 282.873 126.683 282.573 126.683 282.261C126.683 281.948 126.807 281.648 127.028 281.427C127.25 281.205 127.55 281.081 127.862 281.081H164.716C165.029 281.081 165.329 281.205 165.55 281.427C165.771 281.648 165.895 281.948 165.895 282.261C165.895 282.573 165.771 282.873 165.55 283.095C165.329 283.316 165.029 283.44 164.716 283.44Z" fill="#CCCCCC"/>
<path d="M164.716 302.313H127.862C127.55 302.313 127.25 302.188 127.028 301.967C126.807 301.746 126.683 301.446 126.683 301.133C126.683 300.82 126.807 300.52 127.028 300.299C127.25 300.078 127.55 299.954 127.862 299.954H164.716C165.029 299.954 165.329 300.078 165.55 300.299C165.771 300.52 165.895 300.82 165.895 301.133C165.895 301.446 165.771 301.746 165.55 301.967C165.329 302.188 165.029 302.313 164.716 302.313Z" fill="#CCCCCC"/>
<path d="M366.415 283.44H329.561C329.249 283.44 328.949 283.316 328.727 283.095C328.506 282.873 328.382 282.573 328.382 282.261C328.382 281.948 328.506 281.648 328.727 281.427C328.949 281.205 329.249 281.081 329.561 281.081H366.415C366.727 281.081 367.028 281.205 367.249 281.427C367.47 281.648 367.594 281.948 367.594 282.261C367.594 282.573 367.47 282.873 367.249 283.095C367.028 283.316 366.727 283.44 366.415 283.44Z" fill="#CCCCCC"/>
<path d="M366.415 302.313H329.561C329.249 302.313 328.949 302.188 328.727 301.967C328.506 301.746 328.382 301.446 328.382 301.133C328.382 300.82 328.506 300.52 328.727 300.299C328.949 300.078 329.249 299.954 329.561 299.954H366.415C366.727 299.954 367.028 300.078 367.249 300.299C367.47 300.52 367.594 300.82 367.594 301.133C367.594 301.446 367.47 301.746 367.249 301.967C367.028 302.188 366.727 302.313 366.415 302.313Z" fill="#CCCCCC"/>
<path d="M299.182 283.44H262.328C262.016 283.44 261.716 283.316 261.494 283.095C261.273 282.873 261.149 282.573 261.149 282.261C261.149 281.948 261.273 281.648 261.494 281.427C261.716 281.205 262.016 281.081 262.328 281.081H299.182C299.494 281.081 299.795 281.205 300.016 281.427C300.237 281.648 300.361 281.948 300.361 282.261C300.361 282.573 300.237 282.873 300.016 283.095C299.795 283.316 299.494 283.44 299.182 283.44Z" fill="#CCCCCC"/>
<path d="M299.182 302.313H262.328C262.016 302.313 261.716 302.188 261.494 301.967C261.273 301.746 261.149 301.446 261.149 301.133C261.149 300.82 261.273 300.52 261.494 300.299C261.716 300.078 262.016 299.954 262.328 299.954H299.182C299.494 299.954 299.795 300.078 300.016 300.299C300.237 300.52 300.361 300.82 300.361 301.133C300.361 301.446 300.237 301.746 300.016 301.967C299.795 302.188 299.494 302.313 299.182 302.313Z" fill="#CCCCCC"/>
<path d="M231.949 283.44H195.095C194.783 283.44 194.483 283.316 194.261 283.095C194.04 282.873 193.916 282.573 193.916 282.261C193.916 281.948 194.04 281.648 194.261 281.427C194.483 281.205 194.783 281.081 195.095 281.081H231.949C232.262 281.081 232.562 281.205 232.783 281.427C233.004 281.648 233.128 281.948 233.128 282.261C233.128 282.573 233.004 282.873 232.783 283.095C232.562 283.316 232.262 283.44 231.949 283.44Z" fill="#CCCCCC"/>
<path d="M231.949 302.313H195.095C194.783 302.313 194.483 302.188 194.261 301.967C194.04 301.746 193.916 301.446 193.916 301.133C193.916 300.82 194.04 300.52 194.261 300.299C194.483 300.078 194.783 299.954 195.095 299.954H231.949C232.262 299.954 232.562 300.078 232.783 300.299C233.004 300.52 233.128 300.82 233.128 301.133C233.128 301.446 233.004 301.746 232.783 301.967C232.562 302.188 232.262 302.313 231.949 302.313Z" fill="#CCCCCC"/>
<path d="M484.46 265.393L482.101 297.241L437.594 376.967C435.457 380.517 434.519 384.661 434.92 388.785C435.321 392.909 437.039 396.795 439.821 399.866L509.616 463.109C509.616 463.109 523.337 463.559 522.181 470.044C521.025 476.529 528.359 476.221 528.359 476.221L536.611 482.184L541.077 448.22C526.072 414.714 503.819 404.493 484.46 389.037C484.46 389.037 492.623 386.61 490.901 383.799C489.178 380.987 494.587 380.8 494.587 380.8C494.587 380.8 498.177 380.316 498.396 377.703C498.614 375.089 502.095 374.694 502.095 374.694L521.622 355.037L572.925 352.678C572.925 352.678 594.634 298.29 558.77 263.034L484.46 265.393Z" fill="#2F2E41"/>
<path d="M521.736 340.267L538.718 542.582L563.73 541.068L572.924 352.678L521.736 340.267Z" fill="#2F2E41"/>
<path d="M522.956 98.9573L551.587 97.4824L564.885 118.496C564.885 118.496 589.907 122.679 588.172 152.163C586.438 181.648 557.729 207.52 557.729 207.52L558.956 222.875L556.824 228.965L557.098 232.384L560.005 236.006L560.305 239.751L557.729 245.677L558.77 253.598C558.77 253.598 532.865 258.741 519.278 248.503C505.691 238.264 485.64 244.162 485.64 244.162L484.885 234.403L488.814 229.135L486.619 222.263L489.918 215.653L491.639 194.657C491.639 194.657 472.817 166.38 494.424 145.083L503.096 130.341L512.799 118.502L522.956 98.9573Z" fill="#6C63FF"/>
<path d="M593.163 226.828L591.056 152.855C590.958 149.721 589.631 146.752 587.363 144.588C585.094 142.424 582.066 141.238 578.931 141.287C577.309 141.312 575.709 141.668 574.229 142.332C572.749 142.995 571.42 143.954 570.323 145.148C569.225 146.342 568.382 147.747 567.846 149.278C567.309 150.808 567.089 152.432 567.201 154.05L571.745 230.823L572.54 277.59C570.583 278.456 568.94 279.904 567.834 281.737C566.728 283.569 566.214 285.698 566.36 287.833C566.506 289.969 567.306 292.007 568.651 293.672C569.996 295.337 571.821 296.548 573.878 297.139C575.936 297.731 578.125 297.674 580.149 296.978C582.173 296.282 583.934 294.98 585.192 293.248C586.45 291.517 587.144 289.44 587.181 287.3C587.218 285.16 586.595 283.06 585.397 281.287L593.163 226.828Z" fill="#FFB6B6"/>
<path d="M598.283 167.735C598.824 167.185 599.17 166.473 599.267 165.708C599.364 164.943 599.208 164.167 598.821 163.5C598.36 162.667 598.171 161.711 598.279 160.765C598.302 160.583 598.337 160.402 598.384 160.224C598.692 159.158 598.738 158.034 598.518 156.946C598.298 155.859 597.82 154.841 597.122 153.978C594.786 151.172 593.658 146.924 593.17 143.137C592.636 138.994 592.318 134.759 590.807 130.863C588.628 125.244 583.421 120.236 576.313 122.633C573.306 123.699 570.759 125.769 569.1 128.495C565.556 134.147 565.517 140.981 565.543 147.519L564.268 144.935C564.421 152.075 563.13 159.173 560.473 165.803C562.057 165.495 563.178 167.624 562.666 169.154C562.153 170.684 560.738 171.69 559.526 172.755C557.997 174.097 556.554 176.09 557.988 178.14C558.345 178.621 558.797 179.023 559.317 179.32C559.836 179.618 560.412 179.805 561.007 179.869C572.23 181.328 583.633 180.451 594.5 177.291C596.913 176.588 599.5 175.612 600.756 173.435C602.012 171.258 600.796 167.7 598.283 167.735Z" fill="#6C63FF"/>
<path d="M538.718 93.1825C553.701 93.1825 565.847 81.0364 565.847 66.0534C565.847 51.0704 553.701 38.9243 538.718 38.9243C523.735 38.9243 511.589 51.0704 511.589 66.0534C511.589 81.0364 523.735 93.1825 538.718 93.1825Z" fill="#FFB6B6"/>
<path d="M318.084 121.992H182.564C179.263 121.992 176.097 120.68 173.762 118.346C171.428 116.012 170.116 112.845 170.116 109.544C170.116 106.243 171.428 103.076 173.762 100.742C176.097 98.4077 179.263 97.0962 182.564 97.0962H318.084C319.72 97.0946 321.34 97.4154 322.851 98.0402C324.363 98.6651 325.737 99.5817 326.894 100.738C328.051 101.894 328.969 103.267 329.595 104.778C330.222 106.289 330.544 107.908 330.544 109.544C330.544 111.18 330.222 112.799 329.595 114.31C328.969 115.821 328.051 117.194 326.894 118.35C325.737 119.506 324.363 120.423 322.851 121.048C321.34 121.673 319.72 121.993 318.084 121.992Z" fill="#6C63FF"/>
<path d="M728.169 599.637L426.968 600C426.597 599.998 426.241 599.849 425.98 599.586C425.718 599.323 425.571 598.967 425.571 598.596C425.571 598.224 425.718 597.868 425.98 597.605C426.241 597.342 426.597 597.193 426.968 597.191L728.169 596.829C728.54 596.83 728.895 596.979 729.157 597.242C729.419 597.506 729.566 597.862 729.566 598.233C729.566 598.604 729.419 598.96 729.157 599.224C728.895 599.487 728.54 599.636 728.169 599.637Z" fill="#CACACA"/>
<path d="M572.925 58.9764V64.8741H549.452C549.69 63.7355 549.691 62.56 549.453 61.4213C549.216 60.2826 548.746 59.2053 548.072 58.2569C548.053 60.5651 547.478 62.8347 546.397 64.8741C532.824 68.8876 521.432 68.8106 512.097 64.8741C510.711 64.8741 509.382 64.3234 508.402 63.3433C507.422 62.3632 506.871 61.0338 506.871 59.6478C506.871 41.5658 521.124 26.3295 539.202 25.9569C543.597 25.8638 547.966 26.6491 552.054 28.2667C556.141 29.8844 559.864 32.3018 563.005 35.3772C566.146 38.4526 568.641 42.1241 570.345 46.1765C572.048 50.2289 572.925 54.5806 572.925 58.9764V58.9764Z" fill="#2F2E41"/>
<path d="M261.53 160.416H214.349C213.097 160.416 211.897 159.919 211.012 159.034C210.128 158.149 209.63 156.949 209.63 155.698C209.63 154.446 210.128 153.246 211.012 152.361C211.897 151.477 213.097 150.979 214.349 150.979H261.53C262.781 150.979 263.981 151.477 264.866 152.361C265.751 153.246 266.248 154.446 266.248 155.698C266.248 156.949 265.751 158.149 264.866 159.034C263.981 159.919 262.781 160.416 261.53 160.416Z" fill="#CCCCCC"/>
<path d="M273.325 261.029H226.144C224.893 261.029 223.692 260.532 222.808 259.647C221.923 258.763 221.426 257.562 221.426 256.311C221.426 255.06 221.923 253.86 222.808 252.975C223.692 252.09 224.893 251.593 226.144 251.593H273.325C274.576 251.593 275.776 252.09 276.661 252.975C277.546 253.86 278.043 255.06 278.043 256.311C278.043 257.562 277.546 258.763 276.661 259.647C275.776 260.532 274.576 261.029 273.325 261.029Z" fill="#CCCCCC"/>
<path d="M362.969 186.365H213.169C211.918 186.365 210.718 185.868 209.833 184.983C208.948 184.098 208.451 182.898 208.451 181.647C208.451 180.396 208.948 179.196 209.833 178.311C210.718 177.426 211.918 176.929 213.169 176.929H362.969C364.22 176.929 365.42 177.426 366.305 178.311C367.19 179.196 367.687 180.396 367.687 181.647C367.687 182.898 367.19 184.098 366.305 184.983C365.42 185.868 364.22 186.365 362.969 186.365Z" fill="#CCCCCC"/>
<path d="M158.316 200.306C175.787 200.306 189.95 186.143 189.95 168.672C189.95 151.201 175.787 137.039 158.316 137.039C140.846 137.039 126.683 151.201 126.683 168.672C126.683 186.143 140.846 200.306 158.316 200.306Z" fill="#E6E6E6"/>
</g>
<defs>
<clipPath id="clip0_40_704">
<rect width="729.566" height="600" fill="white"/>
</clipPath>
</defs>
</svg>
